<svg xmlns="http://www.w3.org/2000/svg" xmlns:xlink="http://www.w3.org/1999/xlink" width="577" zoomAndPan="magnify" viewBox="0 0 432.75 103.5" height="138" preserveAspectRatio="xMidYMid meet" version="1.0"><path fill="#000000" d="M 288.820312 78.914062 L 289.824219 78.988281 C 290.242188 79.546875 289.933594 80.820312 290.066406 81.554688 C 289.609375 82.011719 289.429688 81.910156 288.800781 81.929688 C 288.914062 81.5 288.902344 81.710938 288.851562 81.257812 C 288.8125 80.910156 288.695312 80.234375 288.8125 79.90625 L 288.984375 79.582031 C 288.9375 79.148438 288.984375 79.375 288.820312 78.914062 Z M 288.820312 78.914062 " fill-opacity="1" fill-rule="nonzero"/><path fill="#000000" d="M 278.273438 85.355469 L 279.3125 85.460938 C 279.726562 86.175781 279.523438 87.203125 279.507812 88.03125 C 279 88.539062 278.804688 88.410156 278.109375 88.414062 L 278.199219 88.164062 L 278.132812 87.984375 C 278.234375 87.671875 278.226562 87.53125 278.179688 87.1875 L 278.058594 86.28125 L 278.617188 86.105469 C 278.40625 85.859375 278.476562 85.988281 278.359375 85.632812 Z M 278.273438 85.355469 " fill-opacity="1" fill-rule="nonzero"/><path fill="#000000" d="M 153.046875 72.445312 L 159.875 72.402344 C 161.070312 72.410156 162.378906 72.320312 163.558594 72.492188 C 163.539062 73.5 163.742188 74.648438 163.15625 75.46875 L 161.71875 75.5 C 161.933594 75.207031 162.023438 75.0625 162.0625 74.691406 L 162.328125 72.78125 C 160.535156 72.734375 154.109375 73.132812 153.046875 72.445312 Z M 153.046875 72.445312 " fill-opacity="1" fill-rule="nonzero"/><path fill="#000000" d="M 344.078125 72.449219 L 350.820312 72.433594 C 351.328125 72.4375 352.394531 72.320312 352.800781 72.570312 C 352.777344 73.21875 352.917969 74.988281 352.582031 75.453125 L 349.53125 75.441406 C 350.121094 75.132812 350.78125 75.28125 351.410156 74.996094 C 351.296875 74.617188 351.292969 74.753906 351.335938 74.40625 L 351.433594 73.535156 C 351.433594 73.53125 351.324219 72.964844 351.242188 72.917969 C 351.132812 72.851562 350.292969 72.863281 350.125 72.855469 C 348.800781 72.777344 345.050781 73.070312 344.078125 72.449219 Z M 344.078125 72.449219 " fill-opacity="1" fill-rule="nonzero"/><path fill="#000000" d="M 250.824219 49.144531 C 251.640625 49.152344 252.464844 48.976562 253.121094 49.472656 L 253.109375 57.210938 L 228.832031 57.226562 L 228.824219 54.59375 C 228.960938 55.234375 229.332031 55.777344 229.421875 56.371094 L 229.46875 56.722656 L 231.21875 56.722656 C 233.089844 56.546875 235.058594 56.664062 236.941406 56.664062 L 247.523438 56.664062 C 248.753906 56.664062 250.53125 56.914062 251.679688 56.671875 L 251.792969 55.128906 C 251.972656 53.839844 252.148438 51.785156 251.773438 50.535156 L 251.679688 50.296875 L 251.832031 49.964844 L 251.808594 49.757812 L 251.78125 49.464844 Z M 250.824219 49.144531 " fill-opacity="1" fill-rule="nonzero"/><path fill="#000000" d="M 165.464844 72.503906 C 166.402344 72.296875 167.554688 72.425781 168.519531 72.421875 L 168.515625 88.460938 L 165.109375 88.394531 C 165.234375 85.964844 164.765625 73.546875 165.464844 72.503906 Z M 165.464844 72.503906 " fill-opacity="1" fill-rule="nonzero"/><path fill="#000000" d="M 270.71875 76.238281 L 270.714844 72.339844 L 274.105469 72.445312 L 273.972656 85.230469 L 278.273438 85.355469 L 278.359375 85.632812 C 278.476562 85.988281 278.40625 85.859375 278.617188 86.105469 L 278.058594 86.28125 L 278.179688 87.1875 C 278.226562 87.53125 278.234375 87.671875 278.132812 87.984375 L 278.199219 88.164062 L 278.109375 88.414062 L 270.644531 88.457031 L 270.742188 85.632812 C 270.558594 85.039062 270.699219 83.886719 270.699219 83.230469 Z M 270.71875 76.238281 " fill-opacity="1" fill-rule="nonzero"/><path fill="#000000" d="M 270.71875 76.238281 L 271.121094 74.996094 C 271.207031 74.730469 271.292969 74.503906 271.421875 74.253906 C 271.492188 76.242188 271.828125 86.140625 271.277344 87.125 L 271.007812 87.003906 C 270.964844 86.53125 270.964844 86.0625 270.742188 85.632812 C 270.558594 85.039062 270.699219 83.886719 270.699219 83.230469 Z M 270.71875 76.238281 " fill-opacity="1" fill-rule="nonzero"/><path fill="#000000" d="M 161.71875 75.5 L 159.761719 75.472656 C 159.265625 76.28125 159.480469 77.945312 159.472656 78.933594 L 159.445312 88.417969 L 156.050781 88.464844 L 156.046875 75.632812 L 152.007812 75.417969 C 152 74.570312 151.800781 73.21875 152.273438 72.503906 L 153.046875 72.445312 C 154.109375 73.132812 160.535156 72.734375 162.328125 72.78125 L 162.0625 74.691406 C 162.023438 75.0625 161.933594 75.207031 161.71875 75.5 Z M 161.71875 75.5 " fill-opacity="1" fill-rule="nonzero"/><path fill="#000000" d="M 349.53125 75.441406 C 348.636719 75.578125 347.601562 75.425781 346.691406 75.382812 L 346.574219 78.867188 L 351.949219 78.902344 L 351.9375 81.972656 L 346.695312 81.910156 C 346.652344 82.863281 346.390625 84.453125 346.664062 85.328125 L 352.800781 85.398438 L 352.816406 88.496094 L 343.15625 88.441406 L 343.152344 78.015625 C 343.144531 76.441406 342.824219 73.957031 343.347656 72.503906 L 344.078125 72.449219 C 345.050781 73.070312 348.800781 72.777344 350.125 72.855469 C 350.292969 72.863281 351.132812 72.851562 351.242188 72.917969 C 351.324219 72.964844 351.433594 73.53125 351.433594 73.535156 L 351.335938 74.40625 C 351.292969 74.753906 351.296875 74.617188 351.410156 74.996094 C 350.78125 75.28125 350.121094 75.132812 349.53125 75.441406 Z M 349.53125 75.441406 " fill-opacity="1" fill-rule="nonzero"/><path fill="#000000" d="M 262.453125 72.261719 C 263.207031 72.308594 264.011719 72.335938 264.734375 72.566406 C 265.683594 72.875 266.925781 73.476562 267.371094 74.355469 C 267.097656 75.257812 266.035156 76.003906 265.351562 76.632812 C 264.679688 76.101562 263.671875 75.367188 262.785156 75.328125 C 262.148438 75.304688 261.902344 75.597656 261.460938 76 C 261.226562 76.757812 261.265625 76.792969 261.515625 77.5 C 262.605469 78.464844 264.292969 78.847656 265.609375 79.488281 C 266.679688 80.011719 267.792969 80.765625 268.171875 81.957031 L 268.234375 82.171875 C 268.335938 82.511719 268.417969 82.839844 268.445312 83.199219 C 268.558594 84.589844 268.363281 85.722656 267.410156 86.796875 C 266.007812 88.371094 264.464844 88.527344 262.496094 88.609375 C 260.632812 88.3125 258.925781 87.5625 257.644531 86.144531 C 257.230469 85.691406 257.289062 85.429688 257.332031 84.84375 C 257.984375 84.351562 258.847656 83.703125 259.640625 83.511719 C 260.164062 83.964844 260.726562 84.523438 261.328125 84.859375 C 262.074219 85.277344 263.25 85.410156 264.0625 85.128906 C 264.5625 84.953125 264.835938 84.78125 264.96875 84.226562 C 265.503906 81.988281 259.289062 81.238281 258.285156 79.402344 L 258.171875 79.085938 C 258.003906 78.640625 257.84375 78.222656 257.765625 77.75 C 257.53125 76.402344 257.820312 75.082031 258.671875 74.003906 C 259.652344 72.761719 260.976562 72.476562 262.453125 72.261719 Z M 262.453125 72.261719 " fill-opacity="1" fill-rule="nonzero"/><path fill="#000000" d="M 288.800781 81.929688 L 284.902344 81.917969 L 284.621094 85.316406 L 290.980469 85.414062 L 290.84375 88.453125 L 281.265625 88.46875 L 281.300781 72.335938 C 283.5625 72.515625 285.878906 72.398438 288.148438 72.421875 C 289.023438 72.429688 290.199219 72.292969 291.003906 72.621094 L 290.804688 75.234375 L 290.808594 75.4375 L 284.851562 75.4375 L 284.628906 78.871094 L 288.820312 78.914062 C 288.984375 79.375 288.9375 79.148438 288.984375 79.582031 L 288.8125 79.90625 C 288.695312 80.234375 288.8125 80.910156 288.851562 81.257812 C 288.902344 81.710938 288.914062 81.5 288.800781 81.929688 Z M 288.800781 81.929688 " fill-opacity="1" fill-rule="nonzero"/><path fill="#000000" d="M 172.019531 76.238281 L 172.007812 72.339844 L 175.433594 72.441406 C 175.40625 73.714844 175.03125 77.105469 175.699219 77.988281 C 176.972656 77.730469 179.203125 74.621094 180.210938 73.574219 C 180.558594 73.210938 181.023438 72.644531 181.523438 72.488281 C 182.050781 72.324219 183.136719 72.449219 183.71875 72.4375 C 184.253906 72.429688 185.066406 72.316406 185.527344 72.550781 L 181.046875 77.335938 C 180.359375 78.054688 179.441406 78.824219 178.980469 79.710938 L 186.609375 88.429688 C 185.265625 88.4375 182.476562 88.808594 181.515625 87.839844 C 180.144531 86.453125 178.917969 84.738281 177.691406 83.214844 C 177.160156 82.554688 176.582031 81.589844 175.800781 81.234375 L 175.445312 81.449219 L 175.449219 81.632812 L 175.402344 88.441406 L 171.917969 88.480469 L 172.035156 84.402344 Z M 172.019531 76.238281 " fill-opacity="1" fill-rule="nonzero"/><path fill="#000000" d="M 172.019531 76.238281 C 172.191406 75.675781 172.335938 75.144531 172.441406 74.566406 C 172.5 74.257812 172.585938 74.023438 172.71875 73.742188 L 172.78125 81.882812 C 172.78125 83.816406 172.894531 85.832031 172.679688 87.757812 L 172.507812 87.824219 C 171.949219 86.789062 172.578125 85.492188 172.035156 84.402344 Z M 172.019531 76.238281 " fill-opacity="1" fill-rule="nonzero"/><path fill="#000000" d="M 142.964844 72.503906 C 143.789062 72.367188 145.613281 72.238281 146.351562 72.59375 C 147.152344 72.984375 151.617188 86.445312 152.394531 88.425781 C 151.136719 88.429688 149.761719 88.53125 148.53125 88.28125 L 147.730469 85.769531 C 147.246094 85.476562 147.003906 85.507812 146.449219 85.484375 L 141.703125 85.375 L 140.578125 88.414062 L 136.90625 88.472656 L 140.90625 77.316406 C 141.386719 75.96875 141.921875 73.445312 142.964844 72.503906 Z M 144.359375 76.824219 L 142.472656 82.585938 L 144.972656 82.53125 L 146.304688 82.550781 L 146.609375 82.21875 C 146.003906 80.484375 145.648438 78.480469 144.871094 76.839844 Z M 144.359375 76.824219 " fill-opacity="1" fill-rule="nonzero"/><path fill="#000000" d="M 359.507812 72.503906 C 360.582031 72.238281 362.085938 72.441406 363.207031 72.46875 L 368.992188 88.449219 C 367.789062 88.441406 366.1875 88.613281 365.046875 88.277344 L 364.238281 85.769531 C 363.652344 85.402344 363.429688 85.464844 362.753906 85.46875 L 358.261719 85.410156 L 357.25 88.242188 C 356.1875 88.597656 354.585938 88.457031 353.449219 88.488281 L 357.574219 76.976562 C 358.054688 75.648438 358.476562 73.4375 359.507812 72.503906 Z M 361.207031 76.824219 C 360.199219 78.582031 359.710938 80.660156 359.078125 82.578125 L 361.027344 82.535156 C 361.722656 82.542969 362.523438 82.722656 363.0625 82.273438 L 361.558594 76.863281 Z M 361.207031 76.824219 " fill-opacity="1" fill-rule="nonzero"/><path fill="#000000" d="M 370.195312 72.351562 C 372.589844 72.488281 375.347656 72.054688 377.664062 72.589844 L 377.9375 72.660156 L 378.515625 72.804688 C 379.800781 73.199219 380.746094 74.117188 381.289062 75.328125 C 381.789062 76.429688 381.84375 77.929688 381.375 79.054688 L 381.269531 79.292969 C 380.703125 80.585938 379.769531 81.214844 378.667969 82.039062 C 379.871094 84.195312 381.527344 86.503906 383.097656 88.417969 C 381.851562 88.429688 380.609375 88.480469 379.375 88.304688 C 378.644531 88.042969 378.414062 87.496094 378.007812 86.863281 C 377.171875 85.5625 376.324219 83.710938 375.28125 82.582031 C 374.941406 82.214844 374.53125 82.160156 374.054688 82.171875 C 373.328125 83.105469 373.554688 86.859375 373.625 88.160156 L 373.640625 88.433594 L 370.160156 88.496094 Z M 373.722656 75.425781 C 373.695312 76.734375 373.710938 78.050781 373.515625 79.347656 C 374.722656 79.359375 376.707031 79.621094 377.730469 78.886719 C 378.242188 78.304688 378.382812 77.835938 378.335938 77.027344 C 378.308594 76.585938 378.125 76.230469 377.757812 75.988281 C 376.882812 75.410156 374.792969 75.472656 373.722656 75.425781 Z M 373.722656 75.425781 " fill-opacity="1" fill-rule="nonzero"/><path fill="#000000" d="M 194.054688 72.285156 L 195.816406 72.394531 C 196.457031 72.4375 197.210938 72.457031 197.75 72.867188 C 198.644531 73.542969 199.40625 74.878906 200.074219 75.78125 C 201.855469 78.179688 203.5625 80.671875 205.527344 82.925781 L 205.535156 72.414062 L 208.875 72.441406 L 208.890625 88.507812 L 205.207031 88.3125 L 197.507812 77.902344 L 197.375 88.46875 L 193.972656 88.46875 Z M 194.054688 72.285156 " fill-opacity="1" fill-rule="nonzero"/><path fill="#000000" d="M 124.257812 72.347656 C 127.148438 72.511719 131.414062 71.742188 133.929688 73.335938 C 134.894531 73.945312 135.5 74.890625 135.707031 76.011719 C 136.0625 77.957031 135.253906 78.703125 134.28125 80.191406 C 134.515625 80.953125 135.0625 81.164062 135.695312 81.609375 C 136.441406 83.429688 136.414062 84.1875 135.894531 86.0625 C 135.722656 86.375 135.535156 86.695312 135.292969 86.960938 C 133.246094 89.222656 127.117188 88.460938 124.199219 88.453125 Z M 127.828125 81.847656 L 127.640625 85.296875 C 129.175781 85.335938 130.652344 85.410156 132.15625 85.050781 C 132.585938 84.503906 132.785156 84.222656 132.757812 83.507812 C 132.734375 82.9375 132.574219 82.566406 132.105469 82.242188 C 131.238281 81.636719 128.898438 81.839844 127.828125 81.847656 Z M 127.816406 75.441406 L 127.667969 79.015625 C 128.976562 79.011719 130.425781 79.164062 131.628906 78.585938 L 131.796875 78.507812 C 132.191406 77.929688 132.410156 77.554688 132.304688 76.824219 C 132.238281 76.371094 131.902344 76.015625 131.496094 75.835938 C 130.613281 75.445312 128.804688 75.484375 127.816406 75.441406 Z M 127.816406 75.441406 " fill-opacity="1" fill-rule="nonzero"/><path fill="#000000" d="M 218.734375 72.300781 C 219.625 72.328125 221.199219 72.222656 222.023438 72.527344 C 222.261719 72.617188 222.515625 72.828125 222.65625 73.039062 C 223.402344 74.148438 223.949219 75.6875 224.496094 76.921875 L 227.375 83.5625 L 232.636719 72.546875 C 233.566406 72.195312 235.332031 72.410156 236.351562 72.410156 L 236.332031 88.433594 L 232.957031 88.480469 C 232.636719 87.394531 232.890625 85.648438 232.914062 84.484375 L 232.851562 78.921875 L 230.144531 84.757812 C 229.710938 85.746094 229.246094 87.207031 228.558594 88.03125 C 228.070312 88.617188 227.476562 88.414062 226.796875 88.394531 C 226.59375 88.238281 226.339844 88.132812 226.179688 87.929688 C 225.8125 87.472656 225.507812 86.378906 225.257812 85.8125 L 222.203125 79.070312 L 222.074219 88.472656 L 218.65625 88.457031 Z M 218.734375 72.300781 " fill-opacity="1" fill-rule="nonzero"/><path fill="#000000" d="M 293.785156 72.324219 L 297.449219 72.53125 L 301.285156 80.6875 C 301.667969 81.503906 301.816406 82.363281 302.367188 83.085938 C 303.304688 82.726562 303.957031 80.519531 304.363281 79.601562 C 305.441406 77.175781 306.492188 74.664062 307.828125 72.371094 L 311.410156 72.371094 L 311.4375 88.425781 L 307.921875 88.457031 L 307.9375 84.070312 L 308.070312 79.109375 C 306.210938 81.75 305.132812 85.03125 303.707031 87.933594 C 302.925781 88.457031 302.808594 88.40625 301.855469 88.359375 C 301 87.902344 300.75 86.808594 300.375 85.960938 L 298.496094 81.691406 C 298.078125 80.789062 297.566406 79.917969 297.078125 79.046875 L 297.136719 88.460938 L 293.667969 88.480469 Z M 293.785156 72.324219 " fill-opacity="1" fill-rule="nonzero"/><path fill="#000000" d="M 319.121094 72.339844 C 320.175781 72.417969 321.542969 72.21875 322.519531 72.605469 C 323.5625 73.707031 325.035156 81.425781 325.789062 83.5625 C 326.910156 79.898438 327.445312 76.011719 328.84375 72.429688 L 332.003906 72.410156 L 335.039062 83.5625 L 338.175781 72.355469 L 341.753906 72.386719 L 340.441406 77.261719 C 339.375 80.960938 338.695312 84.882812 337.292969 88.457031 L 333.203125 88.449219 C 332.898438 86.613281 331.347656 78.851562 330.332031 77.832031 C 329.847656 78.265625 329.664062 79.886719 329.492188 80.578125 C 328.839844 83.210938 328.257812 85.878906 327.421875 88.457031 L 323.367188 88.449219 Z M 319.121094 72.339844 " fill-opacity="1" fill-rule="nonzero"/><path fill="#000000" d="M 246.808594 72.261719 C 248.890625 72.355469 250.378906 72.617188 252.113281 73.882812 C 253.800781 75.105469 254.914062 76.792969 255.226562 78.859375 C 255.578125 81.171875 255.1875 83.472656 253.753906 85.363281 C 252.199219 87.421875 250.285156 88.257812 247.789062 88.589844 C 246.042969 88.5625 244.269531 88.324219 242.804688 87.296875 C 241.175781 86.160156 239.644531 84.503906 239.300781 82.476562 C 238.886719 80.019531 239.175781 77.429688 240.742188 75.410156 C 242.355469 73.328125 244.253906 72.558594 246.808594 72.261719 Z M 246.492188 75.726562 C 245.050781 76.132812 243.84375 76.667969 243.117188 78.078125 C 242.496094 79.28125 242.320312 80.914062 242.8125 82.191406 C 243.324219 83.523438 244.113281 84.285156 245.441406 84.785156 C 246.246094 85.085938 247.027344 85.105469 247.871094 85.117188 L 248.171875 85.125 C 249.640625 84.574219 250.707031 84.089844 251.433594 82.613281 C 252.054688 81.351562 252.164062 80.0625 251.664062 78.738281 C 251.175781 77.433594 250.382812 76.558594 249.058594 76.0625 C 248.203125 75.738281 247.390625 75.710938 246.492188 75.726562 Z M 246.492188 75.726562 " fill-opacity="1" fill-rule="nonzero"/><path fill="#000000" d="M 228.824219 54.59375 L 228.828125 20.25 L 238.855469 20.242188 L 238.78125 49 L 250.824219 49.144531 L 251.78125 49.464844 L 251.808594 49.757812 L 251.832031 49.964844 L 251.679688 50.296875 L 251.773438 50.535156 C 252.148438 51.785156 251.972656 53.839844 251.792969 55.128906 L 251.679688 56.671875 C 250.53125 56.914062 248.753906 56.664062 247.523438 56.664062 L 236.941406 56.664062 C 235.058594 56.664062 233.089844 56.546875 231.21875 56.722656 L 229.46875 56.722656 L 229.421875 56.371094 C 229.332031 55.777344 228.960938 55.234375 228.824219 54.59375 Z M 228.824219 54.59375 " fill-opacity="1" fill-rule="nonzero"/><path fill="#000000" d="M 366.253906 19.824219 C 371.550781 19.359375 375.9375 20.335938 380.832031 22.261719 L 377.929688 30.023438 C 374.78125 28.742188 371.332031 27.46875 367.859375 27.804688 C 366.976562 27.890625 366.234375 28.160156 365.675781 28.882812 C 365.3125 29.347656 365.179688 29.894531 365.296875 30.476562 C 365.394531 30.972656 365.628906 31.40625 366.015625 31.734375 C 368.667969 33.996094 372.738281 35.019531 375.734375 36.890625 C 378.230469 38.445312 380.078125 40.460938 380.679688 43.425781 C 381.308594 46.550781 380.6875 49.972656 378.804688 52.554688 C 376.449219 55.785156 372.539062 57.125 368.738281 57.675781 C 363.871094 58.15625 359.511719 57.398438 355.078125 55.414062 L 355.085938 46.589844 C 359.503906 48.453125 365.054688 50.566406 369.808594 48.902344 C 370.253906 48.492188 370.519531 48.09375 370.726562 47.511719 C 371.023438 46.667969 370.78125 45.832031 370.179688 45.191406 C 369.046875 43.988281 367.089844 43.261719 365.601562 42.601562 C 363.707031 41.757812 361.746094 40.84375 360.019531 39.695312 C 358.5 38.691406 357.058594 37.25 356.269531 35.59375 C 355.089844 33.113281 354.902344 29.347656 355.878906 26.78125 L 355.972656 26.546875 L 356.28125 25.785156 C 357.414062 23.453125 359.476562 21.789062 361.882812 20.914062 L 362.207031 20.800781 C 363.53125 20.316406 364.867188 20.078125 366.253906 19.824219 Z M 366.253906 19.824219 " fill-opacity="1" fill-rule="nonzero"/><path fill="#000000" d="M 327.402344 19.820312 C 332.335938 19.390625 337.390625 20.164062 341.90625 22.265625 C 341.28125 24.84375 340.050781 27.449219 339.085938 29.925781 C 338.351562 29.839844 337.652344 29.425781 336.953125 29.179688 C 334.398438 28.28125 331.238281 27.398438 328.511719 27.875 C 327.53125 28.046875 327.085938 28.535156 326.539062 29.324219 C 326.453125 29.8125 326.390625 30.226562 326.519531 30.71875 C 326.679688 31.335938 327.140625 31.753906 327.65625 32.109375 C 330.535156 34.09375 334.035156 35.132812 337.015625 36.976562 C 339.359375 38.429688 341.105469 40.363281 341.726562 43.113281 C 342.402344 46.09375 342.03125 49.429688 340.316406 52.015625 C 338.003906 55.503906 334.488281 56.796875 330.570312 57.59375 C 325.582031 58.265625 320.664062 57.449219 316.132812 55.320312 L 316.132812 46.652344 L 320.484375 48.230469 C 323.589844 49.214844 328.09375 50.3125 331.148438 48.734375 C 331.660156 48.082031 331.882812 47.617188 332.03125 46.800781 C 331.910156 46.292969 331.785156 45.730469 331.453125 45.316406 C 330.351562 43.953125 327.785156 43.050781 326.222656 42.363281 C 324.652344 41.671875 323.066406 40.898438 321.621094 39.976562 C 319.316406 38.503906 317.277344 36.332031 316.71875 33.585938 C 316.125 30.675781 316.417969 27.042969 318.136719 24.570312 C 320.339844 21.40625 323.800781 20.457031 327.402344 19.820312 Z M 327.402344 19.820312 " fill-opacity="1" fill-rule="nonzero"/><path fill="#000000" d="M 126.726562 20.191406 C 128.320312 20.183594 138.78125 19.835938 139.699219 20.523438 C 140 20.75 140.246094 21.285156 140.433594 21.605469 L 142.304688 25.09375 C 143.605469 27.585938 152.113281 44.585938 153.183594 45.242188 C 153.453125 42.835938 153.003906 39.996094 152.964844 37.539062 L 152.992188 20.207031 L 161.867188 20.246094 L 161.925781 48.28125 L 161.921875 54.371094 C 161.921875 55.175781 162.078125 56.359375 161.726562 57.082031 L 160.996094 57.21875 L 148.621094 57.109375 L 135.015625 31.070312 L 135.519531 57.203125 L 126.605469 57.238281 Z M 126.726562 20.191406 " fill-opacity="1" fill-rule="nonzero"/><path fill="#000000" d="M 193.796875 19.640625 C 195.839844 19.542969 198.082031 19.605469 200.09375 20.011719 C 204.046875 20.820312 207.785156 22.699219 210.054688 26.144531 L 210.25 26.445312 C 210.617188 26.996094 210.980469 27.535156 211.257812 28.136719 C 213.828125 33.765625 213.988281 41.941406 211.8125 47.691406 C 210.472656 51.234375 207.816406 54.378906 204.324219 55.949219 C 202.003906 56.996094 199.707031 57.484375 197.179688 57.746094 C 192.878906 57.945312 188.175781 57.410156 184.515625 54.933594 L 184.230469 54.742188 L 183.101562 53.90625 C 179.59375 50.925781 177.914062 46.691406 177.523438 42.1875 C 177.023438 36.453125 177.425781 29.71875 181.347656 25.140625 C 184.664062 21.273438 188.882812 20.023438 193.796875 19.640625 Z M 193.671875 28.070312 C 191.910156 28.484375 190.597656 29.210938 189.601562 30.78125 C 187.542969 34.050781 187.445312 39.75 188.328125 43.378906 C 188.800781 45.324219 189.699219 47.316406 191.503906 48.347656 C 193.113281 49.265625 194.832031 49.367188 196.636719 49.226562 C 198.464844 48.875 199.734375 48.285156 200.851562 46.707031 C 203.09375 43.527344 203.019531 37.953125 202.335938 34.269531 C 201.929688 32.089844 201.082031 30.207031 199.203125 28.90625 C 197.714844 27.871094 195.417969 27.96875 193.671875 28.070312 Z M 193.671875 28.070312 " fill-opacity="1" fill-rule="nonzero"/><path fill="#000000" d="M 283.039062 19.644531 C 287.671875 19.386719 292.910156 20.203125 296.601562 23.226562 C 300.511719 26.429688 301.914062 30.804688 302.394531 35.683594 C 302.949219 41.328125 302.125 47.785156 298.398438 52.269531 C 295.375 55.910156 290.851562 57.3125 286.300781 57.753906 C 282.066406 57.945312 277.242188 57.394531 273.683594 54.878906 C 270.988281 52.96875 268.976562 50.605469 267.902344 47.425781 L 267.800781 47.109375 C 267.214844 45.390625 266.855469 43.597656 266.691406 41.789062 C 266.1875 36.289062 266.828125 29.511719 270.542969 25.121094 C 273.761719 21.3125 278.230469 19.992188 283.039062 19.644531 Z M 282.84375 28.0625 C 280.996094 28.566406 279.671875 29.3125 278.667969 31.039062 C 278.316406 31.644531 278.089844 32.261719 277.871094 32.921875 L 277.773438 33.214844 C 276.589844 36.910156 276.746094 42.625 278.609375 46.0625 C 279.351562 47.429688 280.507812 48.457031 282.015625 48.910156 C 283.402344 49.328125 284.601562 49.316406 286.019531 49.199219 C 287.972656 48.808594 289.15625 48.054688 290.304688 46.367188 C 292.425781 43.238281 292.246094 37.410156 291.46875 33.863281 C 291.054688 31.984375 290.242188 30.054688 288.566406 28.972656 C 286.863281 27.875 284.785156 27.96875 282.84375 28.0625 Z M 282.84375 28.0625 " fill-opacity="1" fill-rule="nonzero"/><path fill="#000000" d="M 70.0625 6.085938 C 70.441406 6.066406 70.726562 6.183594 71.03125 6.398438 C 71.957031 7.058594 72.554688 8.003906 73.347656 8.765625 L 80.730469 16.105469 L 108.261719 43.507812 L 112.46875 47.753906 C 112.871094 48.167969 113.652344 48.785156 113.925781 49.269531 C 114.023438 49.441406 114.054688 49.878906 114.097656 50.089844 L 70.722656 93.269531 L 70.539062 93.3125 C 70.535156 93.3125 69.917969 93.324219 69.902344 93.316406 C 69.628906 93.226562 68.808594 92.292969 68.570312 92.054688 L 64.257812 87.722656 L 38.542969 62.101562 L 27.953125 51.574219 C 27.027344 50.730469 26.699219 50.550781 26.628906 49.269531 C 27.066406 48.679688 27.773438 48.191406 28.3125 47.679688 L 31.144531 44.863281 L 43.433594 32.609375 L 61.660156 14.363281 C 64.425781 11.609375 67.117188 8.628906 70.0625 6.085938 Z M 70.355469 8.347656 L 28.808594 49.835938 L 29.03125 50.015625 L 49.621094 70.570312 L 70.300781 91.3125 L 111.878906 49.691406 C 110.804688 48.871094 110.050781 47.957031 109.082031 47.058594 L 102.09375 40.058594 C 100.96875 38.902344 99.699219 37.902344 98.660156 36.675781 L 92.78125 30.804688 C 92.539062 30.59375 92.425781 30.460938 92.238281 30.214844 C 91.789062 29.617188 91.183594 29.226562 90.667969 28.695312 L 87.996094 25.992188 L 76.894531 15.054688 C 74.6875 12.855469 72.660156 10.457031 70.355469 8.347656 Z M 70.355469 8.347656 " fill-opacity="1" fill-rule="nonzero"/><path fill="#000000" d="M 69.796875 17.808594 L 70.132812 17.765625 C 70.480469 17.757812 70.679688 17.980469 70.894531 18.210938 L 86.609375 33.964844 C 88.707031 35.707031 90.578125 37.835938 92.445312 39.808594 C 93.265625 40.675781 94.203125 41.410156 95.046875 42.246094 L 99.109375 46.332031 C 99.835938 47.011719 100.503906 47.917969 101.304688 48.46875 L 102.671875 49.546875 C 101.574219 51.011719 100.054688 52.101562 98.8125 53.417969 L 87.585938 64.628906 L 76.464844 75.726562 C 75.070312 77.128906 73.777344 78.832031 72.226562 80.046875 C 71.625 80.523438 71.183594 81.089844 70.5625 81.554688 L 70.097656 81.722656 C 69.503906 81.429688 69.046875 80.988281 68.585938 80.519531 L 37.746094 49.804688 C 38.574219 48.871094 39.5625 48.054688 40.433594 47.15625 L 49.585938 38.027344 L 63.242188 24.351562 L 68.207031 19.378906 C 68.664062 18.917969 69.292969 18.570312 69.652344 18.03125 Z M 70.101562 19.65625 C 68.328125 21.003906 66.855469 22.632812 65.292969 24.210938 L 58.140625 31.445312 L 47.921875 41.519531 L 39.730469 49.757812 L 54.386719 64.394531 C 56.515625 66.523438 58.597656 69.101562 60.925781 70.976562 C 62.183594 71.988281 63.074219 73.355469 64.292969 74.421875 L 67.777344 77.714844 C 68.664062 78.636719 69.238281 79.390625 70.332031 80.121094 L 92.183594 58.011719 L 95.316406 54.921875 C 95.832031 54.398438 96.503906 53.960938 96.886719 53.332031 C 97.148438 52.90625 97.578125 52.6875 97.945312 52.351562 C 98.902344 51.472656 99.644531 50.550781 100.71875 49.773438 L 100.527344 49.632812 C 97.40625 47.277344 94.699219 43.96875 91.925781 41.203125 L 82.546875 31.710938 L 77.472656 26.855469 L 73.539062 22.835938 C 72.710938 22.03125 71.523438 20.164062 70.519531 19.671875 C 70.394531 19.609375 70.242188 19.664062 70.101562 19.65625 Z M 70.101562 19.65625 " fill-opacity="1" fill-rule="nonzero"/><path fill="#000000" d="M 46.765625 46.800781 L 47.152344 46.839844 L 47.042969 47.160156 C 46.777344 47.726562 46.617188 47.695312 46.050781 47.828125 L 45.800781 47.40625 L 46.046875 47.046875 L 46.417969 47.191406 Z M 46.765625 46.800781 " fill-opacity="1" fill-rule="nonzero"/><path fill="#000000" d="M 69.835938 28.707031 L 70.417969 28.550781 L 82.222656 40.277344 L 87.863281 45.917969 C 89.175781 47.226562 90.472656 48.3125 91.523438 49.859375 C 91.121094 50.414062 90.742188 50.972656 90.199219 51.398438 C 88.511719 52.710938 87.027344 54.5 85.515625 56.011719 L 72.3125 68.96875 C 71.671875 69.59375 71.203125 70.320312 70.519531 70.925781 L 69.796875 70.941406 L 48.757812 49.707031 C 49.769531 48.539062 50.917969 47.40625 52.027344 46.328125 C 52.640625 45.734375 53.410156 45.1875 53.886719 44.480469 C 54.148438 44.089844 53.972656 44.273438 54.371094 43.945312 C 55.355469 43.140625 56.183594 42.160156 57.121094 41.296875 C 57.585938 40.871094 58.152344 40.546875 58.589844 40.09375 C 59.636719 39.011719 60.527344 37.746094 61.609375 36.671875 C 64.285156 34.011719 67.371094 31.558594 69.835938 28.707031 Z M 69.988281 29.734375 L 69.832031 29.921875 C 67.8125 32.355469 65.210938 34.328125 63.0625 36.636719 L 55.179688 44.5625 C 53.820312 45.925781 52.488281 47.582031 50.960938 48.734375 C 50.566406 49.03125 50.507812 49.238281 50.328125 49.679688 C 50.433594 50.023438 50.503906 50.28125 50.726562 50.570312 C 51.382812 51.421875 52.421875 52.179688 53.195312 52.945312 L 59.203125 58.996094 L 67.648438 67.417969 C 68.449219 68.222656 69.179688 69.152344 70 69.921875 L 70.519531 69.804688 L 70.769531 69.511719 C 73.246094 66.707031 76.390625 64.433594 78.800781 61.535156 C 79.503906 60.6875 80.46875 59.992188 81.265625 59.222656 L 85.976562 54.410156 C 86.890625 53.480469 87.902344 52.648438 88.710938 51.617188 C 89.230469 50.949219 89.988281 50.433594 90.558594 49.773438 C 89.792969 48.71875 88.953125 48.140625 88.046875 47.257812 L 85.03125 44.214844 L 70.574219 29.691406 Z M 69.988281 29.734375 " fill-opacity="1" fill-rule="nonzero"/></svg>